<?xml version="1.0" encoding="utf-8"?>
<!-- Generator: Adobe Illustrator 21.0.0, SVG Export Plug-In . SVG Version: 6.00 Build 0)  -->
<svg version="1.1" id="Layer_1" xmlns="http://www.w3.org/2000/svg" xmlns:xlink="http://www.w3.org/1999/xlink" x="0px" y="0px"
	 viewBox="0 0 512 512" style="enable-background:new 0 0 512 512;" xml:space="preserve">
<style type="text/css">
	.st0{fill:#FFE4E1;}
</style>
<g>
	<path class="st0" d="M316.6,120.7H195.4c-41.2,0-74.7,33.5-74.7,74.7v121.2c0,41.2,33.5,74.7,74.7,74.7h121.2
		c41.2,0,74.7-33.5,74.7-74.7V195.4C391.3,154.2,357.8,120.7,316.6,120.7z M367.3,316.6c0,27.9-22.7,50.7-50.7,50.7H195.4
		c-27.9,0-50.7-22.7-50.7-50.7V195.4c0-27.9,22.7-50.7,50.7-50.7h121.2c27.9,0,50.7,22.7,50.7,50.7L367.3,316.6L367.3,316.6z"/>
	<path class="st0" d="M256,186.3c-38.4,0-69.7,31.3-69.7,69.7c0,38.4,31.3,69.7,69.7,69.7s69.7-31.3,69.7-69.7
		C325.7,217.6,294.4,186.3,256,186.3z M256,301.7c-25.2,0-45.7-20.5-45.7-45.7c0-25.2,20.5-45.7,45.7-45.7s45.7,20.5,45.7,45.7
		C301.7,281.2,281.2,301.7,256,301.7z"/>
	<path class="st0" d="M328.6,165.9c-4.6,0-9.2,1.9-12.4,5.2c-3.3,3.3-5.2,7.8-5.2,12.5c0,4.6,1.9,9.2,5.2,12.5
		c3.3,3.3,7.8,5.2,12.4,5.2c4.6,0,9.2-1.9,12.5-5.2c3.3-3.3,5.2-7.8,5.2-12.5c0-4.6-1.9-9.2-5.2-12.5
		C337.8,167.8,333.3,165.9,328.6,165.9z"/>
</g>
<path class="st0" d="M256,0C114.6,0,0,114.6,0,256c0,141.4,114.6,256,256,256c141.4,0,256-114.6,256-256C512,114.6,397.4,0,256,0z
	 M256,472c-119.3,0-216-96.7-216-216c0-119.3,96.7-216,216-216c119.3,0,216,96.7,216,216C472,375.3,375.3,472,256,472z"/>
</svg>
