<?xml version="1.0" encoding="utf-8"?>
<!-- Generator: Adobe Illustrator 21.0.0, SVG Export Plug-In . SVG Version: 6.00 Build 0)  -->
<svg version="1.1" id="Capa_1" xmlns="http://www.w3.org/2000/svg" xmlns:xlink="http://www.w3.org/1999/xlink" x="0px" y="0px"
	 viewBox="0 0 512 512" style="enable-background:new 0 0 512 512;" xml:space="preserve">
<style type="text/css">
	.st0{fill:#6495ED;}
</style>
<g>
	<g>
		<path class="st0" d="M256,0C114.6,0,0,114.6,0,256s114.6,256,256,256s256-114.6,256-256S397.4,0,256,0z M256,472
			c-119.3,0-216-96.7-216-216S136.7,40,256,40s216,96.7,216,216S375.3,472,256,472z"/>
		<path class="st0" d="M262,128c-70.2,0-105.6,50.1-105.6,91.9c0,25.3,9.6,47.8,30.2,56.2c3.4,1.3,6.4,0.1,7.4-3.7
			c0.7-2.6,2.3-9.1,3-11.8c1-3.7,0.6-5-2.1-8.2c-6-7-9.8-16-9.8-28.8c0-37.2,27.9-70.4,72.7-70.4c39.6,0,61.5,24.1,61.5,56.4
			c0,42.4-18.8,78.1-46.8,78.1c-15.5,0-27.1-12.7-23.3-28.3c4.4-18.6,13-38.7,13-52.2c0-12-6.5-22.1-19.9-22.1
			c-15.8,0-28.5,16.3-28.5,38.1c0,13.9,4.7,23.3,4.7,23.3s-16.2,68.2-19,80.1c-5.7,23.8-0.8,52.9-0.4,55.9c0.2,1.8,2.5,2.2,3.5,0.8
			c1.5-1.9,20.3-25,26.7-48.1c1.8-6.5,10.4-40.4,10.4-40.4c5.1,9.8,20.1,18.3,36.1,18.3c47.5,0,79.7-43.1,79.7-100.8
			C355.6,168.6,318.4,128,262,128z"/>
	</g>
</g>
</svg>
